<svg version="1.1" viewBox="0.0 0.0 338.3254593175853 338.3254593175853" fill="none" stroke="none" stroke-linecap="square" stroke-miterlimit="10" xmlns:xlink="http://www.w3.org/1999/xlink" xmlns="http://www.w3.org/2000/svg"><clipPath id="p.0"><path d="m0 0l338.32547 0l0 338.32547l-338.32547 0l0 -338.32547z" clip-rule="nonzero"/></clipPath><g clip-path="url(#p.0)"><path fill="#000000" fill-opacity="0.0" d="m0 0l338.32547 0l0 338.32547l-338.32547 0z" fill-rule="evenodd"/><path fill="#000000" fill-opacity="0.0" d="m13.191601 168.69029l0 0c0 -85.878105 69.617966 -155.49606 155.49606 -155.49606l0 0c41.240112 0 80.79115 16.382574 109.95232 45.543743c29.161163 29.161171 45.54373 68.712204 45.54373 109.952324l0 0c0 85.8781 -69.61795 155.49605 -155.49605 155.49605l0 0c-85.878105 0 -155.49606 -69.61795 -155.49606 -155.49605z" fill-rule="evenodd"/><path stroke="#ffffff" stroke-width="24.0" stroke-linejoin="round" stroke-linecap="butt" d="m13.191601 168.69029l0 0c0 -85.878105 69.617966 -155.49606 155.49606 -155.49606l0 0c41.240112 0 80.79115 16.382574 109.95232 45.543743c29.161163 29.161171 45.54373 68.712204 45.54373 109.952324l0 0c0 85.8781 -69.61795 155.49605 -155.49605 155.49605l0 0c-85.878105 0 -155.49606 -69.61795 -155.49606 -155.49605z" fill-rule="evenodd"/><path fill="#000000" fill-opacity="0.0" d="m19.790026 168.69029l0 0c0 -82.2339 66.66374 -148.89764 148.89764 -148.89764l0 0c39.490112 0 77.36281 15.687384 105.286514 43.611107c27.923737 27.923725 43.611115 65.79642 43.611115 105.28653l0 0c0 82.23389 -66.66374 148.89763 -148.89763 148.89763l0 0c-82.2339 0 -148.89764 -66.66374 -148.89764 -148.89763z" fill-rule="evenodd"/><path stroke="#4a86e8" stroke-width="3.0" stroke-linejoin="round" stroke-linecap="butt" d="m19.790026 168.69029l0 0c0 -82.2339 66.66374 -148.89764 148.89764 -148.89764l0 0c39.490112 0 77.36281 15.687384 105.286514 43.611107c27.923737 27.923725 43.611115 65.79642 43.611115 105.28653l0 0c0 82.23389 -66.66374 148.89763 -148.89763 148.89763l0 0c-82.2339 0 -148.89764 -66.66374 -148.89764 -148.89763z" fill-rule="evenodd"/><path fill="#000000" fill-opacity="0.0" d="m73.50656 109.338585l181.88977 0l0 112.40945l-181.88977 0z" fill-rule="evenodd"/><path stroke="#ffffff" stroke-width="1.0" stroke-linejoin="round" stroke-linecap="butt" d="m73.50656 109.338585l181.88977 0l0 112.40945l-181.88977 0z" fill-rule="evenodd"/><path fill="#ffffff" d="m115.1741 136.81046q8.671875 0 15.1875 4.953125q6.53125 4.9375 7.78125 13.53125l-5.421875 0q-1.609375 -6.609375 -6.390625 -10.21875q-4.78125 -3.609375 -11.1875 -3.609375q-9.921875 0 -15.703125 7.046875q-5.78125 7.046875 -5.78125 18.0625q0 10.828125 5.703125 17.984375q5.703125 7.140625 15.78125 7.140625q7.421875 0 12.421875 -5.015625q5.0 -5.03125 5.9375 -13.265625l5.421875 0q-1.203125 10.734375 -7.578125 16.84375q-6.359375 6.09375 -16.171875 6.09375q-12.375 0 -19.671875 -8.40625q-7.28125 -8.40625 -7.28125 -21.375q0 -13.078125 7.359375 -21.421875q7.375 -8.34375 19.59375 -8.34375zm36.953125 1.21875l0 35.734375q0 8.75 4.0625 13.34375q4.0625 4.59375 12.65625 4.59375q8.640625 0 12.71875 -4.53125q4.078125 -4.53125 4.078125 -13.40625l0 -35.734375l5.46875 0l0 36.90625q0 9.453125 -5.671875 15.4375q-5.65625 5.984375 -16.59375 5.984375q-6.671875 0 -11.703125 -2.5q-5.015625 -2.515625 -7.734375 -7.546875q-2.703125 -5.046875 -2.703125 -11.375l0 -36.90625l5.421875 0zm89.38281 0l0 4.640625l-33.984375 0l0 20.625l31.828125 0l0 4.65625l-31.828125 0l0 22.53125l34.375 0l0 4.65625l-39.84375 0l0 -57.109375l39.453125 0z" fill-rule="nonzero"/></g></svg>