<?xml version="1.0" encoding="UTF-8" standalone="no"?>
<!DOCTYPE svg PUBLIC "-//W3C//DTD SVG 1.1//EN" "http://www.w3.org/Graphics/SVG/1.1/DTD/svg11.dtd">
<svg version="1.1" xmlns:dc="http://purl.org/dc/elements/1.1/" xmlns="http://www.w3.org/2000/svg" xmlns:xl="http://www.w3.org/1999/xlink" viewBox="0 0 424 424" width="424" height="424">
  <defs/>
  <metadata> Produced by OmniGraffle 7.11.2 
    <dc:date>2019-08-22 22:21:14 +0000</dc:date>
  </metadata>
  <g id="Canvas_1" stroke="none" stroke-opacity="1" fill-opacity="1" stroke-dasharray="none" fill="none">
    <title>Canvas 1</title>
    <g id="Canvas_1: Layer 1">
      <title>Layer 1</title>
      <g id="Group_13">
        <g id="Graphic_7">
          <path d="M 28.75 212 C 28.75 110.79382 110.79382 28.75 212 28.75 C 260.60093 28.75 307.2113 48.05664 341.5773 82.42268 C 375.94337 116.78873 395.25 163.39908 395.25 212 C 395.25 313.2062 313.2062 395.25 212 395.25 C 110.79382 395.25 28.749998 313.2062 28.749998 212 Z" stroke="white" stroke-linecap="butt" stroke-linejoin="round" stroke-width="6"/>
        </g>
        <g id="Graphic_9">
          <path d="M 9.77383 212 C 9.77383 100.31357 100.31358 9.773825 212 9.773825 C 265.6337 9.773825 317.07074 31.079737 354.9955 69.0045 C 392.92027 106.92927 414.22617 158.3663 414.22617 212 C 414.22617 323.68644 323.68644 414.22618 212 414.22618 C 100.31357 414.22618 9.77383 323.68644 9.77383 212 Z" stroke="white" stroke-linecap="butt" stroke-linejoin="round" stroke-width="20"/>
        </g>
        <g id="Graphic_4">
          <path d="M 128.24941 161.77382 C 137.37563 161.77382 145.36723 164.38014 152.22422 169.59277 C 159.09766 174.78896 163.19212 181.90905 164.50761 190.95304 L 155.9487 190.95304 C 154.25501 183.99739 150.89229 178.62032 145.86054 174.82184 C 140.82879 171.02337 134.94197 169.12413 128.20008 169.12413 C 117.75838 169.12413 109.49545 172.83216 103.41131 180.24824 C 97.32717 187.66432 94.2851 197.16873 94.2851 208.7615 C 94.2851 220.15693 97.28606 229.62023 103.28798 237.15142 C 109.28991 244.66615 117.59394 248.42352 128.20008 248.42352 C 136.0108 248.42352 142.54715 245.78432 147.8091 240.50592 C 153.07107 235.21107 156.19536 228.23075 157.18198 219.56496 L 165.74088 219.56496 C 164.47472 230.86173 160.48714 239.72484 153.77814 246.1543 C 147.08559 252.56732 138.57601 255.77382 128.24941 255.77382 C 115.22606 255.77382 104.8748 251.3505 97.19562 242.50382 C 89.53289 233.65715 85.70152 222.4097 85.70152 208.7615 C 85.70152 194.99818 89.574 183.72607 97.31895 174.94517 C 105.08034 166.16427 115.3905 161.77382 128.24941 161.77382 Z M 186.58318 163.69773 L 186.58318 220.1076 C 186.58318 229.31603 188.72085 236.33746 192.9962 241.17188 C 197.27154 246.0063 203.9312 248.42352 212.9752 248.42352 C 222.06853 248.42352 228.7611 246.0392 233.05288 241.27054 C 237.34466 236.5019 239.49056 229.44758 239.49056 220.1076 L 239.49056 163.69773 L 248.12346 163.69773 L 248.12346 221.9575 C 248.12346 231.9059 245.13894 240.02905 239.1699 246.32696 C 233.2173 252.62487 224.48574 255.77382 212.9752 255.77382 C 205.95378 255.77382 199.79564 254.45833 194.5008 251.82735 C 189.22238 249.17993 185.15259 245.2088 182.2914 239.91395 C 179.44665 234.60265 178.02427 228.61717 178.02427 221.9575 L 178.02427 163.69773 Z M 327.68184 163.69773 L 327.68184 171.02337 L 274.0345 171.02337 L 274.0345 203.58175 L 324.278 203.58175 L 324.278 210.93205 L 274.0345 210.93205 L 274.0345 246.49962 L 328.29848 246.49962 L 328.29848 253.84992 L 265.4016 253.84992 L 265.4016 163.69773 Z" fill="white"/>
        </g>
      </g>
    </g>
  </g>
</svg>
